<?xml version="1.0" encoding="UTF-8"?>
<svg width="200px" height="26px" viewBox="0 0 200 26" version="1.1" xmlns="http://www.w3.org/2000/svg" xmlns:xlink="http://www.w3.org/1999/xlink">
    <!-- Generator: Sketch 51.2 (57519) - http://www.bohemiancoding.com/sketch -->
    <title>logo</title>
    <desc>Created with Sketch.</desc>
    <defs></defs>
    <g id="Desktop" stroke="none" stroke-width="1" fill="none" fill-rule="evenodd">
        <g id="09_Games" transform="translate(-107.000000, -3318.000000)" fill-rule="nonzero">
            <g id="Group-2" transform="translate(0.000000, 2462.000000)">
                <g id="Group-28" transform="translate(0.000000, 734.000000)">
                    <g id="logo" transform="translate(107.000000, 122.000000)">
                        <g id="Group" transform="translate(0.000000, 1.542112)" fill="#FFFFFF">
                            <path d="M8.29181495,12.2182681 C9.94068802,12.2182681 11.0557533,11.886121 11.6488731,11.2218268 C12.2419929,10.5575326 12.5385528,9.58481613 12.5385528,8.30367734 C12.5385528,7.02253855 12.1470937,6.12099644 11.376038,5.57532622 C10.6049822,5.04151839 9.40688019,4.76868327 7.78173191,4.76868327 L4.95848161,4.76868327 L4.95848161,12.2182681 L8.29181495,12.2182681 Z M7.85290629,0.521945433 C11.257414,0.521945433 13.7366548,1.18623962 15.2787663,2.5029656 C16.8327402,3.81969158 17.603796,5.84816133 17.603796,8.58837485 C17.603796,11.3285884 16.8090154,13.3214709 15.2075919,14.5907473 C13.6180308,15.8600237 11.1743772,16.4887307 7.90035587,16.4887307 L4.95848161,16.4887307 L4.95848161,22.6690391 L0.0118623962,22.6690391 L0.0118623962,0.521945433 L7.85290629,0.521945433 Z" id="Shape"></path>
                            <polygon id="Shape" points="21.4709371 22.6809015 21.4709371 0.521945433 26.4175563 0.521945433 26.4175563 18.2680902 35.8600237 18.2680902 35.8600237 22.6809015"></polygon>
                            <polygon id="Shape" points="55.4448399 0.521945433 55.4448399 4.93475682 44.4246738 4.93475682 44.4246738 9.48991696 54.341637 9.48991696 54.341637 13.71293 44.4246738 13.71293 44.4246738 18.3036773 55.8007117 18.3036773 55.8007117 22.6809015 39.4780546 22.6809015 39.4780546 0.521945433"></polygon>
                            <path d="M94.4365362,4.3653618 C93.6180308,4.3653618 92.9655991,4.55516014 92.4911032,4.94661922 C92.0166074,5.33807829 91.7793594,5.86002372 91.7793594,6.50059312 C91.7793594,7.14116251 92.0640569,7.65124555 92.6453144,8.04270463 C93.2265718,8.4223013 94.5670225,8.87307236 96.6666667,9.39501779 C98.7663108,9.91696323 100.403321,10.688019 101.565836,11.7200474 C102.728351,12.7520759 103.309609,14.2704626 103.309609,16.2514828 C103.309609,18.232503 102.562278,19.8457888 101.079478,21.0794781 C99.5848161,22.3131673 97.6275208,22.9300119 95.1957295,22.9300119 C91.6844603,22.9300119 88.5290629,21.6251483 85.717675,19.0272835 L88.6595492,15.4092527 C91.0438909,17.4970344 93.2502966,18.5409253 95.2787663,18.5409253 C96.1921708,18.5409253 96.9039146,18.3511269 97.4139976,17.9596679 C97.9359431,17.5682088 98.1850534,17.0462633 98.1850534,16.3701068 C98.1850534,15.7058126 97.9122183,15.1720047 97.366548,14.7805457 C96.8208778,14.3890866 95.7295374,13.9976275 94.1043891,13.594306 C91.5302491,12.9774614 89.6441281,12.1826809 88.4460261,11.198102 C87.2479241,10.2135231 86.6548043,8.67141163 86.6548043,6.5717675 C86.6548043,4.47212337 87.4139976,2.84697509 88.9205219,1.70818505 C90.4270463,0.569395018 92.3131673,0 94.5788849,0 C96.0616845,0 97.5326216,0.24911032 99.0154211,0.759193357 C100.498221,1.26927639 101.779359,1.98102017 102.882562,2.91814947 L100.379597,6.53618031 C98.4697509,5.08896797 96.4887307,4.3653618 94.4365362,4.3653618 Z" id="Shape"></path>
                            <polygon id="Shape" points="116.714116 4.80427046 116.714116 22.6809015 111.767497 22.6809015 111.767497 4.80427046 105.504152 4.80427046 105.504152 0.521945433 122.989324 0.521945433 122.989324 4.80427046"></polygon>
                            <path d="M144.638197,19.6204033 C142.396204,21.8030842 139.644128,22.9062871 136.370107,22.9062871 C133.096085,22.9062871 130.344009,21.8149466 128.102017,19.6204033 C125.860024,17.4377224 124.744958,14.7093713 124.744958,11.4590747 C124.744958,8.20877817 125.860024,5.48042705 128.102017,3.29774614 C130.344009,1.11506524 133.096085,0.0118623962 136.370107,0.0118623962 C139.644128,0.0118623962 142.396204,1.10320285 144.638197,3.29774614 C146.88019,5.48042705 147.995255,8.20877817 147.995255,11.4590747 C147.995255,14.7093713 146.88019,17.4377224 144.638197,19.6204033 Z M142.953737,11.4709371 C142.953737,9.48991696 142.32503,7.8054567 141.055753,6.41755635 C139.786477,5.01779359 138.232503,4.32977461 136.381969,4.32977461 C134.531435,4.32977461 132.977461,5.02965599 131.708185,6.41755635 C130.438909,7.8173191 129.810202,9.50177936 129.810202,11.4709371 C129.810202,13.4400949 130.438909,15.1245552 131.708185,16.5124555 C132.977461,17.9003559 134.531435,18.5883749 136.381969,18.5883749 C138.232503,18.5883749 139.786477,17.9003559 141.055753,16.5124555 C142.32503,15.1245552 142.953737,13.4519573 142.953737,11.4709371 Z" id="Shape"></path>
                            <path d="M160.735469,11.3285884 C162.419929,11.3285884 163.582444,11.0557533 164.187426,10.510083 C164.80427,9.96441281 165.10083,9.08659549 165.10083,7.90035587 C165.10083,6.70225386 164.780546,5.88374852 164.151839,5.44483986 C163.523132,5.0059312 162.408066,4.78054567 160.830368,4.78054567 L157.117438,4.78054567 L157.117438,11.3404508 L160.735469,11.3285884 Z M170.142349,7.87663108 C170.142349,11.4234875 168.742586,13.71293 165.931198,14.7568209 L171.542112,22.6809015 L165.456702,22.6809015 L160.54567,15.6109134 L157.117438,15.6109134 L157.117438,22.6809015 L152.170819,22.6809015 L152.170819,0.521945433 L160.569395,0.521945433 C164.00949,0.521945433 166.465006,1.10320285 167.935943,2.26571767 C169.418743,3.4282325 170.142349,5.3024911 170.142349,7.87663108 Z" id="Shape"></path>
                            <polygon id="Shape" points="195.053381 8.73072361 189.062871 20.8422301 186.120996 20.8422301 180.166074 8.73072361 180.166074 22.6809015 175.219454 22.6809015 175.219454 0.521945433 181.909846 0.521945433 187.603796 12.6927639 193.345196 0.521945433 200 0.521945433 200 22.6809015 195.053381 22.6809015"></polygon>
                        </g>
                        <path d="M83.9739027,6.04982206 L77.995255,0.0711743772 L71.1625148,6.90391459 L64.3297746,0.0711743772 L58.3629893,6.04982206 L65.1957295,12.8825623 L58.3629893,19.7034401 L64.341637,25.6820878 L71.1743772,18.8493476 L78.0071174,25.6820878 L83.9857651,19.7034401 L77.1530249,12.8706999 L83.9739027,6.04982206 Z M79.2408066,4.79240807 L78.4341637,8.81376038 L75.2194543,5.59905101 L79.2408066,4.79240807 Z M63.0960854,20.9489917 L63.9027284,16.9276394 L67.1174377,20.1423488 L63.0960854,20.9489917 Z M63.890866,8.81376038 L63.084223,4.79240807 L67.1055753,5.59905101 L63.890866,8.81376038 Z M71.1625148,15.9905101 C69.4424674,15.9905101 68.054567,14.5907473 68.054567,12.8825623 C68.054567,11.1625148 69.4543298,9.77461447 71.1625148,9.77461447 C72.8825623,9.77461447 74.2704626,11.1743772 74.2704626,12.8825623 C74.282325,14.5907473 72.8825623,15.9905101 71.1625148,15.9905101 Z M78.4460261,16.9276394 L79.252669,20.9489917 L75.2313167,20.1423488 L78.4460261,16.9276394 Z" id="Shape" fill="#7E57C2"></path>
                    </g>
                </g>
            </g>
        </g>
    </g>
</svg>